<?xml version="1.0" encoding="utf-8"?>
<!-- Generator: Adobe Illustrator 16.0.0, SVG Export Plug-In . SVG Version: 6.00 Build 0)  -->
<!DOCTYPE svg PUBLIC "-//W3C//DTD SVG 1.1//EN" "http://www.w3.org/Graphics/SVG/1.1/DTD/svg11.dtd">
<svg version="1.1" id="Layer_1" xmlns="http://www.w3.org/2000/svg" xmlns:xlink="http://www.w3.org/1999/xlink" x="0px" y="0px"
	 width="308.73px" height="308.816px" viewBox="0 0 308.73 308.816" enable-background="new 0 0 308.73 308.816"
	 xml:space="preserve">
<g>
	<path fill="#62BD60" d="M79.794,228.968l79.848,79.848c0,0,151.356-3.043,149.096-159.703l-79.854,79.854
		C228.883,228.967,158.109,299.742,79.794,228.968z"/>
	<path fill="#009688" d="M228.882,228.968l79.848-79.848c0,0-3.043-151.357-159.703-149.096l79.854,79.854
		C228.881,79.879,299.656,150.654,228.882,228.968z"/>
	<path fill="#62BD60" d="M228.968,79.965L149.121,0.118c0,0-151.356,3.042-149.096,159.703l79.854-79.854
		C79.879,79.966,150.654,9.192,228.968,79.965z"/>
	<path fill="#009688" d="M79.88,79.965L0.033,159.813c0,0,3.043,151.356,159.703,149.096l-79.854-79.854
		C79.881,229.054,9.107,158.28,79.88,79.965z"/>
</g>
</svg>
